:SAMPLES-PER-SECOND 30
:FULLY-SPECIFIED
:DEGREES
64
root  2.7039 39.8246 0.20841 33.6763 -82.4839 -38.7888
RightUpLeg  0.560114 -3.31112 6.392
RightLeg  9.41697 -12.8471 -1.54853
RightFoot  -6.14981 -0.418291 8.2874
RightToes  5.82063e-011 0 -3.6325e-017
Spine  10.0639 -1.42717 5.85484
Spine1  5.0208 -0.746497 -0.355981
HEad  -8.50888 -1.47511 -1.12838
LeftShoulder1  2.48187 -5.90795 -19.917
LeftArm  -1.38416 9.77937 -46.6045
LeftForeArm  9.69837 -6.97133 -13.6512
LeftHand  -0.70993 -0.64524 13.7614
RightShoulder  1.70611 3.24279 18.8427
RightArm  -7.51268 -5.17669 52.6495
RightForeArm  22.7675 2.54477 14.2911
RightHand  -0.474586 -2.38397 -18.0801
LeftUpLeg  -6.43385 -3.44869 8.21336
LeftLeg  21.4636 4.65681 2.34107
LeftFoot  -11.988 0.00738047 -11.3828
LeftToes  3.99265e-010 -1.33173e-010 6.75004e-011
65
root  2.64651 39.8485 0.379117 30.0854 -82.6815 -35.2612
RightUpLeg  0.440453 -3.31961 5.76967
RightLeg  10.0604 -12.7557 -2.01485
RightFoot  -6.03425 -0.405387 7.84657
RightToes  5.82063e-011 0 -3.6325e-017
Spine  11.0679 -1.24423 5.76264
Spine1  4.65739 -0.375943 -0.997341
HEad  -9.07308 -1.55345 -0.993404
LeftShoulder1  2.43125 -5.79821 -19.6664
LeftArm  -3.84763 10.865 -45.0684
LeftForeArm  10.4915 -5.63624 -13.7078
LeftHand  -0.724195 -0.495219 14.3774
RightShoulder  1.69082 3.20489 18.751
RightArm  -9.93964 -5.6659 51.6391
RightForeArm  24.0385 0.762338 14.1037
RightHand  -0.496422 -2.29074 -18.3597
LeftUpLeg  -6.2853 -2.65498 7.5183
LeftLeg  21.5848 5.72019 2.81245
LeftFoot  -11.9821 0.00252767 -12.3455
LeftToes  3.99265e-010 -1.33173e-010 6.75004e-011
66
root  2.56828 39.8713 0.540638 24.2634 -82.5946 -29.4913
RightUpLeg  0.329677 -3.31003 5.05419
RightLeg  10.7689 -12.8644 -2.54962
RightFoot  -6.05535 -0.396974 7.69334
RightToes  5.82063e-011 0 -3.6325e-017
Spine  11.954 -1.03756 4.81947
Spine1  4.55369 -0.236436 -0.929914
HEad  -9.83162 -1.61824 -0.929602
LeftShoulder1  2.39958 -5.78594 -19.3378
LeftArm  -6.28354 12.186 -43.881
LeftForeArm  10.9077 -4.39195 -13.6234
LeftHand  -0.727972 -0.0651644 15.5643
RightShoulder  1.68339 3.2194 18.5723
RightArm  -11.2229 -6.40466 50.501
RightForeArm  24.2347 -0.249023 13.905
RightHand  -0.532271 -2.16783 -18.9537
LeftUpLeg  -6.42324 -1.95508 6.60941
LeftLeg  22.4228 8.3021 4.07349
LeftFoot  -11.6833 0.0326514 -12.3087
LeftToes  3.99265e-010 -1.33173e-010 6.75004e-011
67
root  2.48689 39.8592 0.683307 18.8719 -81.9727 -23.8051
RightUpLeg  -0.278509 -3.27489 4.48776
RightLeg  11.8566 -13.4825 -3.11077
RightFoot  -6.49688 -0.399098 8.38005
RightToes  5.82063e-011 0 -3.6325e-017
Spine  12.6111 -0.826199 3.24879
Spine1  4.39943 -0.346092 -0.250196
HEad  -10.5407 -1.70129 -0.700427
LeftShoulder1  2.41783 -5.95793 -19.0402
LeftArm  -7.95227 13.8669 -42.9951
LeftForeArm  10.3152 -3.80216 -13.4369
LeftHand  -0.675997 0.911363 17.5288
RightShoulder  1.70445 3.2963 18.5999
RightArm  -11.7139 -7.46238 49.0493
RightForeArm  23.6238 -0.336412 13.7744
RightHand  -0.57977 -1.99793 -19.6406
LeftUpLeg  -7.49531 -1.9815 5.78069
LeftLeg  24.7091 12.6777 6.63532
LeftFoot  -11.7452 0.0335221 -10.7418
LeftToes  3.99265e-010 -1.33173e-010 6.75004e-011
68
root  2.45296 39.7467 0.832782 16.779 -80.9623 -20.895
RightUpLeg  -2.51448 -4.22427 4.09915
RightLeg  14.9193 -13.2637 -3.78565
RightFoot  -7.33903 -0.380676 9.43604
RightToes  5.82063e-011 0 -3.6325e-017
Spine  13.4892 -0.551179 1.5118
Spine1  3.35223 -0.53296 0.842615
HEad  -10.9409 -1.92318 -0.246672
LeftShoulder1  2.43539 -6.14611 -18.6996
LeftArm  -9.72749 15.5551 -42.7236
LeftForeArm  10.0328 -3.05593 -13.1732
LeftHand  -0.562483 2.09231 19.6546
RightShoulder  1.7421 3.37952 18.8638
RightArm  -12.3202 -8.81697 47.3716
RightForeArm  22.2243 -0.0310115 13.5787
RightHand  -0.606042 -1.91521 -20.0518
LeftUpLeg  -9.9233 -2.98304 5.30117
LeftLeg  29.1607 17.6803 10.7413
LeftFoot  -11.9058 0.0301156 -8.01467
LeftToes  3.99265e-010 -1.33173e-010 6.75004e-011
69
root  2.47415 39.4231 1.00969 17.4472 -79.8235 -20.8278
RightUpLeg  -6.30192 -7.18614 3.90645
RightLeg  20.8968 -10.2302 -4.49086
RightFoot  -8.76234 -0.296317 10.5144
RightToes  5.82063e-011 0 -3.6325e-017
Spine  15.2016 -0.149977 -0.102187
Spine1  1.36732 -0.620652 2.29353
HEad  -11.1795 -2.29554 0.25223
LeftShoulder1  2.35408 -6.10888 -17.8876
LeftArm  -12.2466 16.8999 -43.9147
LeftForeArm  10.3311 -1.78097 -12.6416
LeftHand  -0.431515 3.10769 21.6766
RightShoulder  1.76363 3.44348 18.9468
RightArm  -13.3994 -10.3096 46.066
RightForeArm  19.847 0.29243 13.2444
RightHand  -0.594395 -2.06897 -20.5665
LeftUpLeg  -12.9828 -4.67244 5.26734
LeftLeg  35.746 20.7439 15.6415
LeftFoot  -11.3466 0.0686765 -6.121
LeftToes  3.99265e-010 -1.33173e-010 6.75004e-011
